<?xml version="1.0" encoding="UTF-8" standalone="no"?>
<!DOCTYPE svg PUBLIC "-//W3C//DTD SVG 1.1//EN" "http://www.w3.org/Graphics/SVG/1.1/DTD/svg11.dtd">
<svg width="100%" height="100%" viewBox="0 0 31 10" version="1.1" xmlns="http://www.w3.org/2000/svg" xmlns:xlink="http://www.w3.org/1999/xlink" xml:space="preserve" xmlns:serif="http://www.serif.com/" style="fill-rule:evenodd;clip-rule:evenodd;stroke-miterlimit:9;">
    <g id="Artboard1" transform="matrix(0.794941,0,0,0.497638,-249.024,-111.607)">
        <rect x="313.261" y="224.273" width="37.826" height="19.228" style="fill:none;"/>
        <clipPath id="_clip1">
            <rect x="313.261" y="224.273" width="37.826" height="19.228"/>
        </clipPath>
        <g clip-path="url(#_clip1)">
            <g transform="matrix(0.888397,0,0,2.00949,41.9153,-229.529)">
                <path d="M315.191,235.082C310.059,235.082 305.893,233.079 305.893,230.611C305.893,228.144 310.059,226.141 315.191,226.141L347.463,226.141L347.463,235.082L315.191,235.082Z" style="fill:none;stroke:black;stroke-width:0.69px;"/>
            </g>
            <g transform="matrix(1.25796,0,0,2.00949,-73.2554,-189.271)">
                <text x="312.018px" y="212.967px" style="font-family:'LucidaGrande', 'Lucida Grande', sans-serif;font-weight:500;font-size:8px;">return</text>
            </g>
            <g transform="matrix(1.05644,0,0,1.3542,-3.92252,-82.6703)">
                <path d="M304.676,229.533L304.676,237.979C302.807,237.979 301.289,236.087 301.289,233.756C301.289,231.425 302.807,229.533 304.676,229.533Z"/>
            </g>
        </g>
    </g>
</svg>
